<?xml version="1.0" encoding="UTF-8" standalone="no"?>
<!-- Created with Inkscape (http://www.inkscape.org/) -->

<svg
   xmlns:dc="http://purl.org/dc/elements/1.1/"
   xmlns:cc="http://creativecommons.org/ns#"
   xmlns:rdf="http://www.w3.org/1999/02/22-rdf-syntax-ns#"
   xmlns:svg="http://www.w3.org/2000/svg"
   xmlns="http://www.w3.org/2000/svg"
   xmlns:sodipodi="http://sodipodi.sourceforge.net/DTD/sodipodi-0.dtd"
   xmlns:inkscape="http://www.inkscape.org/namespaces/inkscape"
   id="svg4155"
   version="1.1"
   inkscape:version="0.91 r13725"
   xml:space="preserve"
   width="587.48743"
   height="452.08093"
   viewBox="0 0 587.48743 452.08093"
   sodipodi:docname="block_pointer_checksum_highlighted.svg"><metadata
     id="metadata4161"><rdf:RDF><cc:Work
         rdf:about=""><dc:format>image/svg+xml</dc:format><dc:type
           rdf:resource="http://purl.org/dc/dcmitype/StillImage" /><dc:title></dc:title></cc:Work></rdf:RDF></metadata><defs
     id="defs4159"><clipPath
       clipPathUnits="userSpaceOnUse"
       id="clipPath4383"><rect
         style="fill:#ededed;fill-opacity:1;stroke:#000000;stroke-width:16;stroke-miterlimit:4;stroke-dasharray:16, 16;stroke-dashoffset:0;stroke-opacity:1"
         id="rect4385"
         width="4761.1562"
         height="3616.6475"
         x="647.4649"
         y="-6605.4497"
         transform="scale(1,-1)" /></clipPath></defs><sodipodi:namedview
     pagecolor="#ffffff"
     bordercolor="#666666"
     borderopacity="1"
     objecttolerance="10"
     gridtolerance="10"
     guidetolerance="10"
     inkscape:pageopacity="0"
     inkscape:pageshadow="2"
     inkscape:window-width="2556"
     inkscape:window-height="1399"
     id="namedview4157"
     showgrid="false"
     fit-margin-top="0"
     fit-margin-left="0"
     fit-margin-right="0"
     fit-margin-bottom="0"
     inkscape:zoom="1.7299117"
     inkscape:cx="363.57629"
     inkscape:cy="122.93051"
     inkscape:window-x="0"
     inkscape:window-y="18"
     inkscape:window-maximized="0"
     inkscape:current-layer="g4163" /><g
     id="g4163"
     inkscape:groupmode="layer"
     inkscape:label="302_zfs"
     transform="matrix(1.25,0,0,-1.25,-86.897222,825.68121)"><g
       id="g4165"
       transform="scale(0.1,0.1)"
       clip-path="url(#clipPath4383)"><g
         id="g4167"
         transform="scale(10,10)"><text
           transform="matrix(1,0,0,-1,210.9,694)"
           style="font-variant:normal;font-weight:bold;font-size:24px;font-family:Times;-inkscape-font-specification:Times-Bold;writing-mode:lr-tb;fill:#000000;fill-opacity:1;fill-rule:nonzero;stroke:none"
           id="text4169"><tspan
             x="0 16.007999 30.672001 44.015999 50.015999 66.024002 72.695999 84.695999 95.351997 108.696 114.696 128.8801 140.8801 147.55209 160.89609 168.88809 179.5441"
             y="0"
             sodipodi:role="line"
             id="tspan4171">ZFS Block Pointer</tspan></text>
</g><path
         d="m 862.25,5960.25 4431,0"
         style="fill:none;stroke:#000000;stroke-width:4.4000001;stroke-linecap:round;stroke-linejoin:round;stroke-miterlimit:10;stroke-dasharray:none;stroke-opacity:1"
         id="path4173"
         inkscape:connector-curvature="0" /><path
         d="m 862.25,5753.25 4431,0"
         style="fill:none;stroke:#000000;stroke-width:4.4000001;stroke-linecap:round;stroke-linejoin:round;stroke-miterlimit:10;stroke-dasharray:none;stroke-opacity:1"
         id="path4175"
         inkscape:connector-curvature="0" /><path
         d="m 862.25,5544.25 4431,0"
         style="fill:none;stroke:#000000;stroke-width:4.4000001;stroke-linecap:round;stroke-linejoin:round;stroke-miterlimit:10;stroke-dasharray:none;stroke-opacity:1"
         id="path4177"
         inkscape:connector-curvature="0" /><path
         d="m 862.25,5336.25 4431,0"
         style="fill:none;stroke:#000000;stroke-width:4.4000001;stroke-linecap:round;stroke-linejoin:round;stroke-miterlimit:10;stroke-dasharray:none;stroke-opacity:1"
         id="path4179"
         inkscape:connector-curvature="0" /><path
         d="m 862.25,5129.25 4431,0"
         style="fill:none;stroke:#000000;stroke-width:4.4000001;stroke-linecap:round;stroke-linejoin:round;stroke-miterlimit:10;stroke-dasharray:none;stroke-opacity:1"
         id="path4181"
         inkscape:connector-curvature="0" /><path
         d="m 862.25,4922.25 4431,0"
         style="fill:none;stroke:#000000;stroke-width:4.4000001;stroke-linecap:round;stroke-linejoin:round;stroke-miterlimit:10;stroke-dasharray:none;stroke-opacity:1"
         id="path4183"
         inkscape:connector-curvature="0" /><path
         d="m 862.25,4714.25 4431,0"
         style="fill:none;stroke:#000000;stroke-width:4.4000001;stroke-linecap:round;stroke-linejoin:round;stroke-miterlimit:10;stroke-dasharray:none;stroke-opacity:1"
         id="path4185"
         inkscape:connector-curvature="0" /><path
         d="m 862.25,4505.25 4431,0"
         style="fill:none;stroke:#000000;stroke-width:4.4000001;stroke-linecap:round;stroke-linejoin:round;stroke-miterlimit:10;stroke-dasharray:none;stroke-opacity:1"
         id="path4187"
         inkscape:connector-curvature="0" /><path
         d="m 862.25,4299.25 4431,0"
         style="fill:none;stroke:#000000;stroke-width:4.4000001;stroke-linecap:round;stroke-linejoin:round;stroke-miterlimit:10;stroke-dasharray:none;stroke-opacity:1"
         id="path4189"
         inkscape:connector-curvature="0" /><path
         d="m 862.25,4091.25 4431,0"
         style="fill:none;stroke:#000000;stroke-width:4.4000001;stroke-linecap:round;stroke-linejoin:round;stroke-miterlimit:10;stroke-dasharray:none;stroke-opacity:1"
         id="path4191"
         inkscape:connector-curvature="0" /><path
         d="m 862.25,3883.25 4431,0"
         style="fill:none;stroke:#000000;stroke-width:4.4000001;stroke-linecap:round;stroke-linejoin:round;stroke-miterlimit:10;stroke-dasharray:none;stroke-opacity:1"
         id="path4193"
         inkscape:connector-curvature="0" /><path
         d="m 862.25,3675.25 4431,0"
         style="fill:none;stroke:#000000;stroke-width:4.4000001;stroke-linecap:round;stroke-linejoin:round;stroke-miterlimit:10;stroke-dasharray:none;stroke-opacity:1"
         id="path4195"
         inkscape:connector-curvature="0" /><path
         d="m 862.25,3261.25 4431,0"
         style="fill:none;stroke:#000000;stroke-width:4.4000001;stroke-linecap:round;stroke-linejoin:round;stroke-miterlimit:10;stroke-dasharray:none;stroke-opacity:1"
         id="path4197"
         inkscape:connector-curvature="0" /><path
         d="m 1417.25,5129.25 0,-207"
         style="fill:none;stroke:#000000;stroke-width:4.4000001;stroke-linecap:round;stroke-linejoin:round;stroke-miterlimit:10;stroke-dasharray:none;stroke-opacity:1"
         id="path4199"
         inkscape:connector-curvature="0" /><path
         d="m 1970.25,5129.25 0,-207"
         style="fill:none;stroke:#000000;stroke-width:4.4000001;stroke-linecap:round;stroke-linejoin:round;stroke-miterlimit:10;stroke-dasharray:none;stroke-opacity:1"
         id="path4201"
         inkscape:connector-curvature="0" /><path
         d="m 2524.25,5129.25 0,-207"
         style="fill:none;stroke:#000000;stroke-width:4.4000001;stroke-linecap:round;stroke-linejoin:round;stroke-miterlimit:10;stroke-dasharray:none;stroke-opacity:1"
         id="path4203"
         inkscape:connector-curvature="0" /><path
         d="m 4186.25,5129.25 0,-207"
         style="fill:none;stroke:#000000;stroke-width:4.4000001;stroke-linecap:round;stroke-linejoin:round;stroke-miterlimit:10;stroke-dasharray:none;stroke-opacity:1"
         id="path4205"
         inkscape:connector-curvature="0" /><path
         d="m 862.25,3468.25 4431,0"
         style="fill:none;stroke:#000000;stroke-width:4.4000001;stroke-linecap:round;stroke-linejoin:round;stroke-miterlimit:10;stroke-dasharray:none;stroke-opacity:1"
         id="path4207"
         inkscape:connector-curvature="0" /><path
         d="m 1417.25,6444.25 0,-68"
         style="fill:none;stroke:#000000;stroke-width:4.4000001;stroke-linecap:round;stroke-linejoin:round;stroke-miterlimit:10;stroke-dasharray:none;stroke-opacity:1"
         id="path4209"
         inkscape:connector-curvature="0" /><path
         d="m 862.25,6444.25 0,-68"
         style="fill:none;stroke:#000000;stroke-width:4.4000001;stroke-linecap:round;stroke-linejoin:round;stroke-miterlimit:10;stroke-dasharray:none;stroke-opacity:1"
         id="path4211"
         inkscape:connector-curvature="0" /><path
         d="m 1970.25,6444.25 0,-68"
         style="fill:none;stroke:#000000;stroke-width:4.4000001;stroke-linecap:round;stroke-linejoin:round;stroke-miterlimit:10;stroke-dasharray:none;stroke-opacity:1"
         id="path4213"
         inkscape:connector-curvature="0" /><path
         d="m 2524.25,6444.25 0,-68"
         style="fill:none;stroke:#000000;stroke-width:4.4000001;stroke-linecap:round;stroke-linejoin:round;stroke-miterlimit:10;stroke-dasharray:none;stroke-opacity:1"
         id="path4215"
         inkscape:connector-curvature="0" /><path
         d="m 3078.25,6444.25 0,-68"
         style="fill:none;stroke:#000000;stroke-width:4.4000001;stroke-linecap:round;stroke-linejoin:round;stroke-miterlimit:10;stroke-dasharray:none;stroke-opacity:1"
         id="path4217"
         inkscape:connector-curvature="0" /><path
         d="m 3632.25,6444.25 0,-68"
         style="fill:none;stroke:#000000;stroke-width:4.4000001;stroke-linecap:round;stroke-linejoin:round;stroke-miterlimit:10;stroke-dasharray:none;stroke-opacity:1"
         id="path4219"
         inkscape:connector-curvature="0" /><path
         d="m 4186.25,6444.25 0,-68"
         style="fill:none;stroke:#000000;stroke-width:4.4000001;stroke-linecap:round;stroke-linejoin:round;stroke-miterlimit:10;stroke-dasharray:none;stroke-opacity:1"
         id="path4221"
         inkscape:connector-curvature="0" /><path
         d="m 4740.25,6444.25 0,-68"
         style="fill:none;stroke:#000000;stroke-width:4.4000001;stroke-linecap:round;stroke-linejoin:round;stroke-miterlimit:10;stroke-dasharray:none;stroke-opacity:1"
         id="path4223"
         inkscape:connector-curvature="0" /><path
         d="m 5293.25,6444.25 0,-68"
         style="fill:none;stroke:#000000;stroke-width:4.4000001;stroke-linecap:round;stroke-linejoin:round;stroke-miterlimit:10;stroke-dasharray:none;stroke-opacity:1"
         id="path4225"
         inkscape:connector-curvature="0" /><path
         d="m 3078.25,6375.25 0,-208"
         style="fill:none;stroke:#000000;stroke-width:4.4000001;stroke-linecap:round;stroke-linejoin:round;stroke-miterlimit:10;stroke-dasharray:none;stroke-opacity:1"
         id="path4227"
         inkscape:connector-curvature="0" /><path
         d="m 3632.25,6375.25 0,-208"
         style="fill:none;stroke:#000000;stroke-width:4.4000001;stroke-linecap:round;stroke-linejoin:round;stroke-miterlimit:10;stroke-dasharray:none;stroke-opacity:1"
         id="path4229"
         inkscape:connector-curvature="0" /><path
         d="m 3078.25,5960.25 0,-208"
         style="fill:none;stroke:#000000;stroke-width:4.4000001;stroke-linecap:round;stroke-linejoin:round;stroke-miterlimit:10;stroke-dasharray:none;stroke-opacity:1"
         id="path4231"
         inkscape:connector-curvature="0" /><path
         d="m 3632.25,5960.25 0,-208"
         style="fill:none;stroke:#000000;stroke-width:4.4000001;stroke-linecap:round;stroke-linejoin:round;stroke-miterlimit:10;stroke-dasharray:none;stroke-opacity:1"
         id="path4233"
         inkscape:connector-curvature="0" /><path
         d="m 3078.25,5544.25 0,-208"
         style="fill:none;stroke:#000000;stroke-width:4.4000001;stroke-linecap:round;stroke-linejoin:round;stroke-miterlimit:10;stroke-dasharray:none;stroke-opacity:1"
         id="path4235"
         inkscape:connector-curvature="0" /><path
         d="m 3632.25,5544.25 0,-208"
         style="fill:none;stroke:#000000;stroke-width:4.4000001;stroke-linecap:round;stroke-linejoin:round;stroke-miterlimit:10;stroke-dasharray:none;stroke-opacity:1"
         id="path4237"
         inkscape:connector-curvature="0" /><path
         d="m 862.559,3052.72 4430.88,0 0,3322.8 -4430.88,0 0,-3322.8 z"
         style="fill:none;stroke:#000000;stroke-width:4.4000001;stroke-linecap:round;stroke-linejoin:round;stroke-miterlimit:10;stroke-dasharray:none;stroke-opacity:1"
         id="path4239"
         inkscape:connector-curvature="0" /><path
         d="m 3078.25,5129.25 0,-207"
         style="fill:none;stroke:#000000;stroke-width:4.4000001;stroke-linecap:round;stroke-linejoin:round;stroke-miterlimit:10;stroke-dasharray:none;stroke-opacity:1"
         id="path4241"
         inkscape:connector-curvature="0" /><path
         d="m 1001.25,6167.25 0,-207"
         style="fill:none;stroke:#000000;stroke-width:4.4000001;stroke-linecap:round;stroke-linejoin:round;stroke-miterlimit:10;stroke-dasharray:none;stroke-opacity:1"
         id="path4243"
         inkscape:connector-curvature="0" /><path
         d="m 1001.25,5753.25 0,-208"
         style="fill:none;stroke:#000000;stroke-width:4.4000001;stroke-linecap:round;stroke-linejoin:round;stroke-miterlimit:10;stroke-dasharray:none;stroke-opacity:1"
         id="path4245"
         inkscape:connector-curvature="0" /><path
         d="m 1033.25,5336.25 0,-207"
         style="fill:none;stroke:#000000;stroke-width:4.4000001;stroke-linecap:round;stroke-linejoin:round;stroke-miterlimit:10;stroke-dasharray:none;stroke-opacity:1"
         id="path4247"
         inkscape:connector-curvature="0" /><path
         d="m 1121.25,5129.25 0,-207"
         style="fill:none;stroke:#000000;stroke-width:4.4000001;stroke-linecap:round;stroke-linejoin:round;stroke-miterlimit:10;stroke-dasharray:none;stroke-opacity:1"
         id="path4249"
         inkscape:connector-curvature="0" /><path
         d="m 1033.25,5129.25 0,-207"
         style="fill:none;stroke:#000000;stroke-width:4.4000001;stroke-linecap:round;stroke-linejoin:round;stroke-miterlimit:10;stroke-dasharray:none;stroke-opacity:1"
         id="path4251"
         inkscape:connector-curvature="0" /><path
         d="m 946.25,5129.25 0,-207"
         style="fill:none;stroke:#000000;stroke-width:4.4000001;stroke-linecap:round;stroke-linejoin:round;stroke-miterlimit:10;stroke-dasharray:none;stroke-opacity:1"
         id="path4253"
         inkscape:connector-curvature="0" /><g
         id="g4255"
         transform="scale(10,10)"><text
           transform="matrix(1,0,0,-1,71.632,312.572)"
           style="font-variant:normal;font-weight:normal;font-size:14px;font-family:Times;-inkscape-font-specification:Times-Roman;writing-mode:lr-tb;fill:#000000;fill-opacity:1;fill-rule:nonzero;stroke:none"
           id="text4257"><tspan
             x="0"
             y="0"
             id="tspan4259">F</tspan><tspan
             x="-0.76992202"
             y="-20.0762"
             id="tspan4261">E</tspan><tspan
             x="-2.3242221"
             y="-40.883999"
             id="tspan4263">D</tspan><tspan
             x="-1.55391"
             y="-61.6203"
             id="tspan4265">C</tspan><tspan
             x="-1.55391"
             y="-82.428101"
             id="tspan4267">B</tspan><tspan
             x="-2.3242221"
             y="-103.164"
             id="tspan4269">A</tspan><tspan
             x="0.78397799"
             y="-123.8281"
             id="tspan4271">9</tspan><tspan
             x="0.78397799"
             y="-144.70821"
             id="tspan4273">8</tspan><tspan
             x="0.78397799"
             y="-165.3723"
             id="tspan4275">7</tspan><tspan
             x="0.78397799"
             y="-186.252"
             id="tspan4277">6</tspan><tspan
             x="0.78397799"
             y="-206.91611"
             id="tspan4279">5</tspan><tspan
             x="0.78397799"
             y="-227.7243"
             id="tspan4281">4</tspan><tspan
             x="0.78397799"
             y="-248.46021"
             id="tspan4283">3</tspan><tspan
             x="0.78397799"
             y="-269.26801"
             id="tspan4285">2</tspan><tspan
             x="0.78397799"
             y="-290.0043"
             id="tspan4287">1</tspan><tspan
             x="0.78397799"
             y="-310.8121"
             id="tspan4289">0</tspan><tspan
             x="18.123777 25.123777 73.564056 80.564056 128.93196 135.93196 184.29985 191.29985 239.66776 246.66776 295.1076 302.1076 350.47595 357.47595 405.84384 461.21173"
             y="-331.548"
             sodipodi:role="line"
             id="tspan4291">6456484032241680</tspan><tspan
             x="362.38077 368.59677 374.04279 377.93478 384.15079 110.24878 117.24878 124.24878 130.11478 137.11478"
             y="-309.37219"
             sodipodi:role="line"
             id="tspan4293">asizevdev1</tspan><tspan
             x="362.38077 368.59677 374.04279 377.93478 384.15079 108.80878 115.80878 122.80878 128.67477 135.67477"
             y="-267.82809"
             sodipodi:role="line"
             id="tspan4295">asizevdev2</tspan><tspan
             x="218.65378 225.65378 229.96588 234.62787 240.07388 246.28987 250.18187"
             y="-247.164"
             sodipodi:role="line"
             id="tspan4297">offset2</tspan><tspan
             x="362.38077 368.59677 374.04279 377.93478 384.15079 110.24878 117.24878 124.24878 130.11478 137.11478"
             y="-226.28391"
             sodipodi:role="line"
             id="tspan4299">asizevdev3</tspan><tspan
             x="218.65378 225.65378 229.96588 234.62787 240.07388 246.28987 250.18187"
             y="-205.62019"
             sodipodi:role="line"
             id="tspan4301">offset3</tspan><tspan
             x="189.69478 193.58678 200.58678 207.58678 211.47878 217.69478 223.91078 227.80278 231.30278 238.30278 242.19478 246.85678 250.74878 257.74878 261.24878 265.14078 269.03278 279.92477"
             y="-102.7322"
             sodipodi:role="line"
             id="tspan4303">logical birth time</tspan><tspan
             x="212.82997 220.61398 224.50598 228.39798 231.89798 238.11398 245.11398 252.11398 259.11398"
             y="-80.988503"
             sodipodi:role="line"
             id="tspan4305">fll count</tspan><tspan
             x="201.76277 207.97878 214.97878 221.19478 227.41078 234.41078 239.85678 246.85678 257.74878 262.41077 269.41077"
             y="-60.180302"
             sodipodi:role="line"
             id="tspan4307">checksum[0]</tspan><tspan
             x="201.76277 207.97878 214.97878 221.19478 227.41078 234.41078 239.85678 246.85678 257.74878 262.41077 269.41077"
             y="-39.444401"
             sodipodi:role="line"
             id="tspan4309">checksum[1]</tspan><tspan
             x="201.76277 207.97878 214.97878 221.19478 227.41078 234.41078 239.85678 246.85678 257.74878 262.41077 269.41077"
             y="-18.6366"
             sodipodi:role="line"
             id="tspan4311">checksum[2]</tspan><tspan
             x="201.76277 207.97878 214.97878 221.19478 227.41078 234.41078 239.85678 246.85678 257.74878 262.41077 269.41077"
             y="2.0997"
             sodipodi:role="line"
             id="tspan4313">checksum[3]</tspan><tspan
             x="223.14798 228.59398 235.59398 241.80998 246.47198"
             y="-165.3723"
             sodipodi:role="line"
             id="tspan4315">spare</tspan></text>
<text
           transform="matrix(1,0,0,-1,88.856978,559.7361)"
           style="font-variant:normal;font-weight:normal;font-size:13px;font-family:Times;-inkscape-font-specification:Times-Roman;writing-mode:lr-tb;fill:#000000;fill-opacity:1;fill-rule:nonzero;stroke:none"
           id="text4317"><tspan
             x="0"
             y="0"
             id="tspan4319">G</tspan><tspan
             x="1.94414"
             y="41.5438"
             id="tspan4321">G</tspan></text>
<text
           transform="matrix(1,0,0,-1,325.99312,621.9443)"
           style="font-variant:normal;font-weight:normal;font-size:14px;font-family:Times;-inkscape-font-specification:Times-Roman;writing-mode:lr-tb;fill:#000000;fill-opacity:1;fill-rule:nonzero;stroke:none"
           id="text4323"><tspan
             x="0 7 11.662 15.554"
             y="0"
             sodipodi:role="line"
             id="tspan4325">grid</tspan><tspan
             x="0 7 11.662 15.554"
             y="41.544102"
             sodipodi:role="line"
             id="tspan4327">grid</tspan><tspan
             x="0 7 11.662 15.554"
             y="83.088203"
             sodipodi:role="line"
             id="tspan4329">grid</tspan></text>
<text
           transform="matrix(1,0,0,-1,88.425118,601.2803)"
           style="font-variant:normal;font-weight:normal;font-size:13px;font-family:Times;-inkscape-font-specification:Times-Roman;writing-mode:lr-tb;fill:#000000;fill-opacity:1;fill-rule:nonzero;stroke:none"
           id="text4331"><tspan
             x="0"
             y="0"
             id="tspan4333">G</tspan></text>
<text
           transform="matrix(1,0,0,-1,294.78012,457.2803)"
           style="font-variant:normal;font-weight:normal;font-size:14px;font-family:Times;-inkscape-font-specification:Times-Roman;writing-mode:lr-tb;fill:#000000;fill-opacity:1;fill-rule:nonzero;stroke:none"
           id="text4335"><tspan
             x="0 5.4460001 12.446 18.662001 23.323999"
             y="0"
             sodipodi:role="line"
             id="tspan4337">spare</tspan><tspan
             x="55.825001 62.825001 68.271004 72.163002 78.378998"
             y="-41.5438"
             sodipodi:role="line"
             id="tspan4339">psize</tspan><tspan
             x="162.571 166.463 171.909 175.80099 182.017"
             y="-40.39185"
             sodipodi:role="line"
             id="tspan4341">lsize</tspan><tspan
             x="-29.872 -23.656 -16.656 -5.7639999"
             y="-41.5438"
             sodipodi:role="line"
             id="tspan4343">comp</tspan><tspan
             x="-4.4938998 2.5060999 6.8181982 11.480198 16.926197 23.142199 27.034199"
             y="-143.9998"
             sodipodi:role="line"
             id="tspan4345">offset1</tspan><tspan
             x="-86.522797 -80.306801 -73.306801 -67.860802 -60.860802"
             y="-40.3918"
             sodipodi:role="line"
             id="tspan4347">cksum</tspan><tspan
             x="-37.694698 -30.6947 -23.764622 -16.764622 -11.318622 -7.4266219 -1.2106218 5.0053782 8.897378 12.397378 19.397379 23.289377 27.951378 31.843378 38.84338 42.34338 46.235378 50.127377 61.019379"
             y="21.312099"
             sodipodi:role="line"
             id="tspan4349">physical birth time</tspan><tspan
             x="-137.03571 -133.14371 -126.1437 -119.1437"
             y="-41.5438"
             sodipodi:role="line"
             id="tspan4351">type</tspan><tspan
             x="-175.358 -171.466 -164.466"
             y="-40.39185"
             sodipodi:role="line"
             id="tspan4353">lvl</tspan></text>
<text
           transform="matrix(1,0,0,-1,85.805318,497.38426)"
           style="font-variant:normal;font-weight:normal;font-size:13px;font-family:Times;-inkscape-font-specification:Times-Roman;writing-mode:lr-tb;fill:#000000;fill-opacity:1;fill-rule:nonzero;stroke:none"
           id="text4355"><tspan
             x="0 8.6709995 18.056999"
             y="0"
             sodipodi:role="line"
             id="tspan4357">BDX</tspan></text>
</g><path
         d="m 862.25,6167.25 4431,0"
         style="fill:none;stroke:#000000;stroke-width:5.5999999;stroke-linecap:round;stroke-linejoin:round;stroke-miterlimit:10;stroke-dasharray:none;stroke-opacity:1"
         id="path4359"
         inkscape:connector-curvature="0" /><g
         id="g4361"
         transform="scale(10,10)"><text
           transform="matrix(1,0,0,-1,100.346,258.472)"
           style="font-variant:normal;font-weight:normal;font-size:24px;font-family:Times;-inkscape-font-specification:Times-Roman;writing-mode:lr-tb;fill:#000000;fill-opacity:1;fill-rule:nonzero;stroke:none"
           id="text4363"><tspan
             x="0 26.4 43.7281 61.7281 68.400101 86.400101 93.071899 105.0719 113.0639 123.7199 134.3759 140.3759 147.0479 157.1039 168.7439 179.39999 186.07201 195.408 201.408 213.408 221.39999 227.39999 235.392 246.048 258.048 270.048 282.048 294.048 304.70401 316.70401 327"
             y="0"
             sodipodi:role="line"
             id="tspan4365">•Uptothree levels of redundancy</tspan><tspan
             x="0 26.4 42.407799 54.407799 65.063797 75.719803 87.719803 97.055801 109.0558 127.7278 133.7278 143.0638 153.7198 165.7198 176.37579 184.3678 195.0238 201.6958 212.35181 218.35181 226.3438 234.3358 246.3358 265.00781 271.00781 283.00781 293.66379 300.33578"
             y="46.799999"
             sodipodi:role="line"
             id="tspan4367">•Checksum separate from data</tspan><tspan
             x="0 26.4 42.407799 49.0798 57.0718 63.743801 75.743797 81.743797 88.415802 95.087799 113.7598 124.4158 130.4158 137.0878 146.4238 152.4238 159.09579 171.09579 181.7518 187.7518 194.4238 202.4158 213.07179 225.07179 234.40781 245.0638 255.7198 262.39182 269.06381 281.06381 293.06381 301.05579 313.05579 321.04779 333.04779 345.04779 357.04779 363.04779 375.04779 387.04779 405.71979 417.71979 428.37579"
             y="93.599998"
             sodipodi:role="line"
             id="tspan4369">•Birth time is the transaction-group number</tspan><tspan
             x="26.4 33.071999 45.071999 51.071999 68.400002 80.400002 87.071999 97.727997 109.728 115.728 122.4 129.07201 135.07201 152.16016 162.81616 172.15216 178.15216 188.80815 195.48016 202.15216 214.15216 224.80815 235.46416 242.13615 252.79216"
             y="119.6"
             sodipodi:role="line"
             id="tspan4371">in which it was allocated</tspan><tspan
             x="-0 26.4 47.735901 58.391899 65.063904 77.063904 83.735901 94.391899 101.0639 113.0639 122.3999 128.3999 139.05589 145.72791 152.3999 164.3999 175.05589 185.7119 192.3839 203.0399 215.0399 221.0399 227.0399 239.0399 250.91991 262.91989 272.25589 278.92789 289.58389 300.2399"
             y="166.39999"
             sodipodi:role="line"
             id="tspan4373">•Maintains allocated, physical</tspan><tspan
             x="26.4 34.391998 45.048 57.048 75.720001 87.720001 95.711998 106.368 115.704 125.04 135.696 147.696 155.688 161.688 167.688 178.34399 190.34399 202.34399 208.34399 215.01601 227.01601 239.01601 245.688 256.34399 267 273.672 279.672 289.008 295.67999 306.336 316.992"
             y="192.39999"
             sodipodi:role="line"
             id="tspan4375">(compressed), and logical sizes</tspan></text>
<text
           transform="matrix(1,0,0,-1,248.558,24.0001)"
           style="font-variant:normal;font-weight:normal;font-size:14px;font-family:Times;-inkscape-font-specification:Times-Roman;writing-mode:lr-tb;fill:#000000;fill-opacity:1;fill-rule:nonzero;stroke:none"
           id="text4377"><tspan
             x="0 3.892 9.8980389 16.898039 20.790039 24.290039 28.95204 35.168037 39.83004 43.722038 47.222038 54.222038 61.222038 64.722038 68.222038 75.222038 82.222038 89.222038 93.884041 100.88404 107.88404"
             y="0"
             sodipodi:role="line"
             id="tspan4379">text ref: pp. 529-531</tspan></text>
</g></g><ellipse
       style="fill:none;fill-opacity:1;stroke:#800000;stroke-width:4;stroke-miterlimit:4;stroke-dasharray:none;stroke-dashoffset:0;stroke-opacity:1;fill-rule:nonzero"
       id="path4425"
       cx="306.26758"
       cy="-344.66058"
       transform="scale(1,-1)"
       rx="234.13376"
       ry="45.780346" /></g></svg>